<svg width="639" height="485" viewBox="0 0 639 485" fill="none" xmlns="http://www.w3.org/2000/svg">
<g id="Graphic">
<g id="Plant">
<rect id="Rectangle 15" x="145.162" y="9.08411" width="8.11142" height="39.9701" fill="#49E1E6"/>
<path id="Polygon 2" d="M126.553 105.376L111.815 47.2374L188.423 47.2374L174.63 105.376H126.553Z" fill="#FE9F9B"/>
<path id="Ellipse 1" d="M193.281 37.7715C188.953 40.1743 184.966 37.1953 174.106 29.0818C163.246 20.9683 144.841 24.3141 151.202 15.6634C157.564 7.01276 171.525 6.57731 182.385 14.6908C193.245 22.8044 192.916 27.4748 193.281 37.7715Z" fill="#49E1E6"/>
<g id="Group 2">
<path id="Ellipse 2" d="M106.031 30.8341C109.792 34.062 114.291 31.9487 126.544 26.1929C138.796 20.4371 156.164 27.4321 151.651 17.6721C147.137 7.91205 133.546 4.66602 121.294 10.4218C109.041 16.1777 108.435 20.8198 106.031 30.8341Z" fill="#49E1E6"/>
</g>
<ellipse id="Ellipse 3" cx="149.218" cy="9.08408" rx="4.05571" ry="4.54206" fill="#49E1E6"/>
</g>
<g id="Testtube Rack">
<rect id="Rectangle 21" x="374.027" y="342.379" width="264.973" height="21.8019" rx="10.9009" fill="#0E4042"/>
<path id="Rectangle 22" d="M374.027 354.189H639V366.907H374.027V354.189Z" fill="#0E4042"/>
<rect id="Rectangle 23" width="9.01269" height="116.277" transform="matrix(-1 0 0 1 623.678 226.103)" fill="#0E4042"/>
<rect id="Rectangle 24" width="9.01269" height="116.277" transform="matrix(-1 0 0 1 397.46 226.103)" fill="#0E4042"/>
<g id="Group 6">
<rect id="Rectangle 26" x="421.794" y="193.4" width="28.8406" height="134.445" rx="14.4203" fill="white"/>
<rect id="Rectangle 27" x="417.288" y="193.4" width="37.8533" height="12.7178" rx="6.35888" fill="white"/>
</g>
<g id="Group 7">
<rect id="Rectangle 26_2" x="492.093" y="193.4" width="28.8406" height="134.445" rx="14.4203" fill="white"/>
<rect id="Rectangle 27_2" x="487.587" y="193.4" width="37.8533" height="12.7178" rx="6.35888" fill="white"/>
</g>
<g id="Group 8">
<rect id="Rectangle 26_3" x="562.392" y="193.4" width="28.8406" height="134.445" rx="14.4203" fill="white"/>
<rect id="Rectangle 27_3" x="557.886" y="193.4" width="37.8533" height="12.7178" rx="6.35888" fill="white"/>
</g>
<g id="Group 9">
<rect id="Rectangle 26_4" x="562.392" y="193.4" width="28.8406" height="134.445" rx="14.4203" fill="white"/>
<rect id="Rectangle 27_4" x="557.886" y="193.4" width="37.8533" height="12.7178" rx="6.35888" fill="white"/>
</g>
<rect id="Rectangle 26_5" x="567.8" y="237.912" width="18.0254" height="84.4822" rx="9.01269" fill="#49E1E6"/>
<rect id="Rectangle 27_5" x="497.501" y="237.912" width="18.0254" height="84.4822" rx="9.01269" fill="#FE9F9B"/>
<rect id="Rectangle 28" x="427.202" y="237.912" width="18.0254" height="84.4822" rx="9.01269" fill="#56B2DB"/>
<rect id="Rectangle 25" x="372.224" y="226.103" width="266.776" height="17.2598" fill="#0E4042"/>
</g>
<g id="Circle Flask">
<ellipse id="Ellipse 8" cx="380.336" cy="400.972" rx="46.866" ry="45.8748" fill="white"/>
<rect id="Rectangle 19" x="361.409" y="305.135" width="36.952" height="69.9477" fill="white"/>
<rect id="Rectangle 20" x="355.1" y="296.05" width="49.5698" height="11.8093" rx="3" fill="white"/>
<rect id="Rectangle 19_2" x="366.817" y="347.83" width="26.1368" height="18.1682" fill="#FE9F9B"/>
<path id="Ellipse 9" d="M417.288 401.426C417.288 422.999 400.542 440.488 379.885 440.488C359.228 440.488 342.482 422.999 342.482 401.426C342.482 379.853 359.228 362.364 379.885 362.364C400.542 362.364 417.288 379.853 417.288 401.426Z" fill="#FE9F9B"/>
<ellipse id="Bubble14" cx="378.083" cy="366.452" rx="3.15444" ry="3.17944" fill="white"/>
<ellipse id="Bubble13" cx="388.447" cy="393.25" rx="4.50635" ry="4.54206" fill="white"/>
<ellipse id="Bubble12" cx="366.817" cy="413.236" rx="5.40762" ry="5.45047" fill="white"/>
<ellipse id="Bubble11" cx="398.812" cy="424.591" rx="3.15444" ry="3.17944" fill="white"/>
</g>
<g id="Triangle Flask">
<path id="Polygon 3" d="M305.449 348.142C309.674 340.765 320.313 340.765 324.539 348.142L371.515 430.152C375.716 437.485 370.421 446.62 361.97 446.62H268.017C259.566 446.62 254.272 437.485 258.472 430.152L305.449 348.142Z" fill="white"/>
<path id="Polygon 4" d="M305.004 366.955C307.23 363.08 311.579 360.937 316.008 361.532L316.909 361.653C320.252 362.102 323.204 364.061 324.918 366.966L361.517 429.007C361.745 429.393 362.009 429.756 362.305 430.092C366.336 434.662 363.091 441.85 356.997 441.85H274.309C268.208 441.85 264.832 434.779 268.667 430.035C268.908 429.737 269.125 429.42 269.316 429.087L305.004 366.955Z" fill="#56B2DB"/>
<rect id="Rectangle 16" x="296.518" y="301.501" width="36.952" height="69.9477" fill="white"/>
<rect id="Rectangle 18" x="301.925" y="356.006" width="26.1368" height="18.1682" fill="#56B2DB"/>
<rect id="Rectangle 17" x="290.209" y="296.05" width="49.5698" height="11.8093" rx="3" fill="white"/>
<ellipse id="Bubble4" cx="299.672" cy="422.32" rx="5.85825" ry="5.45047" fill="white"/>
<ellipse id="Bubble3" cx="325.358" cy="414.144" rx="4.50635" ry="4.54206" fill="white"/>
<ellipse id="Bubble2" cx="340.68" cy="430.041" rx="3.60508" ry="3.17944" fill="white"/>
<ellipse id="Bubble1" cx="311.389" cy="393.705" rx="3.15444" ry="3.17944" fill="white"/>
</g>
<g id="DNA">
<path id="Vector 2" d="M412.113 90.2448C407.283 94.3782 393.922 102.337 379.111 101.107C360.596 99.5697 327.576 87.9485 306.169 109.387C284.762 130.825 291.544 161.076 289.475 165.822C287.406 170.569 294.906 186.851 274.676 211.832" stroke="#56B2DB" stroke-width="10"/>
<path id="Rectangle 29" d="M367.288 55.2064C368.478 54.1531 370.29 54.2711 371.334 55.4699L403.439 92.3378C404.483 93.5367 404.364 95.3625 403.174 96.4158C401.983 97.4692 400.171 97.3512 399.127 96.1523L367.022 59.2844C365.978 58.0856 366.097 56.2598 367.288 55.2064Z" fill="#49E1E6"/>
<path id="Rectangle 38" d="M245.908 163.457C247.099 162.403 248.91 162.521 249.954 163.72L282.059 200.588C283.103 201.787 282.985 203.613 281.794 204.666C280.603 205.72 278.792 205.602 277.748 204.403L245.642 167.535C244.598 166.336 244.717 164.51 245.908 163.457Z" fill="#49E1E6"/>
<rect id="Rectangle 30" width="36.4297" height="5.75688" rx="2.87844" transform="matrix(0.656718 0.754136 -0.748974 0.6626 365.072 70.1943)" fill="#49E1E6"/>
<rect id="Rectangle 36" width="36.4297" height="5.75688" rx="2.87844" transform="matrix(0.656718 0.754136 -0.748974 0.6626 264.824 158.882)" fill="#49E1E6"/>
<rect id="Rectangle 37" width="36.4297" height="5.75688" rx="2.87844" transform="matrix(0.656718 0.754136 -0.748974 0.6626 264.824 158.882)" fill="#49E1E6"/>
<rect id="Rectangle 31" width="40.3328" height="5.75688" rx="2.87844" transform="matrix(0.656718 0.754136 -0.748974 0.6626 337.697 93.5443)" fill="#49E1E6"/>
<rect id="Rectangle 32" width="51.3918" height="5.75688" rx="2.87844" transform="matrix(0.656718 0.754136 -0.748974 0.6626 323.927 99.6465)" fill="#49E1E6"/>
<rect id="Rectangle 33" width="58.5477" height="5.75688" rx="2.87844" transform="matrix(0.656718 0.754136 -0.748974 0.6626 310.696 105.272)" fill="#49E1E6"/>
<rect id="Rectangle 34" width="55.295" height="5.75688" rx="2.87844" transform="matrix(0.656718 0.754136 -0.748974 0.6626 302.053 117.261)" fill="#49E1E6"/>
<rect id="Rectangle 35" width="43.5855" height="5.75688" rx="2.87844" transform="matrix(0.656718 0.754136 -0.748974 0.6626 295.657 130.736)" fill="#49E1E6"/>
<path id="Vector 1" d="M375.372 48.0542C370.682 52.3478 361.2 64.7611 360.787 80.0654C360.27 99.1956 368.269 134.678 344.35 153.232C320.432 171.787 290.799 160.221 285.801 161.603C280.802 162.985 265.281 152.832 237.935 169.642" stroke="#56B2DB" stroke-width="10"/>
</g>
<g id="Specimen">
<path id="Vector 3" d="M76.6092 352.624C87.2523 305.553 116.876 208.673 150.224 197.712" stroke="#49E1E6" stroke-width="4"/>
<path id="Ellipse 14" d="M181.979 175.41C184.102 179.138 179.287 187.838 169.218 190.236C160.408 191.134 148.836 203.651 146.713 199.923C144.59 196.194 149.597 187.771 157.896 181.11C166.195 174.449 179.855 171.681 181.979 175.41Z" fill="#49E1E6"/>
<path id="Ellipse 23" d="M142.725 157.338C146.531 157.076 150.532 165.72 147.27 176.386C143.532 185.155 146.97 201.991 143.165 202.254C139.359 202.516 135.658 193.82 134.898 182.831C134.138 171.842 138.92 157.6 142.725 157.338Z" fill="#49E1E6"/>
<path id="Ellipse 15" d="M176.052 209.858C176.431 214.308 169.337 222.168 159.433 218.388C151.252 214.044 135.239 214.969 134.86 210.519C134.481 206.069 142.324 201.712 152.378 200.787C162.432 199.862 175.673 205.409 176.052 209.858Z" fill="#49E1E6"/>
<path id="Ellipse 19" d="M138.364 295.176C140.418 291.519 137.262 280.318 127.145 277.571C118.315 276.368 104.681 265.779 102.627 269.436C100.573 273.092 105.74 281.691 114.167 288.641C122.594 295.591 136.311 298.832 138.364 295.176Z" fill="#49E1E6"/>
<path id="Ellipse 16" d="M165.565 231.173C165.32 235.617 155.661 240.444 144.747 236.271C136.926 233.281 124.439 227.999 124.684 223.555C124.929 219.111 133.304 216.408 143.388 217.518C153.473 218.627 165.811 226.729 165.565 231.173Z" fill="#49E1E6"/>
<path id="Ellipse 24" d="M60.4267 272.228C59.9421 267.789 66.8409 259.684 76.8234 263.126C85.0988 267.19 101.071 265.717 101.556 270.155C102.041 274.593 94.3101 279.22 84.2894 280.49C74.2687 281.76 60.9113 276.666 60.4267 272.228Z" fill="#49E1E6"/>
<path id="Ellipse 25" d="M68.0273 246.619C68.1664 242.165 77.6993 237.006 88.7006 240.806C96.5835 243.529 109.182 248.384 109.043 252.838C108.904 257.292 100.604 260.283 90.504 259.518C80.4043 258.754 67.8882 251.072 68.0273 246.619Z" fill="#49E1E6"/>
<path id="Ellipse 18" d="M146.473 265.104C146.227 269.548 141.629 277.442 130.715 273.269C122.894 270.279 105.346 261.93 105.592 257.486C105.837 253.042 114.211 250.339 124.296 251.449C134.381 252.558 146.718 260.66 146.473 265.104Z" fill="#49E1E6"/>
<path id="Ellipse 17" d="M155.775 249.581C155.166 253.963 145.134 257.616 134.587 252.188C127.029 248.298 115.003 241.584 115.612 237.202C116.221 232.82 124.752 235.765 134.723 238.055C144.694 240.344 156.383 245.199 155.775 249.581Z" fill="#49E1E6"/>
<path id="Ellipse 20" d="M104.115 174.576C101.398 177.541 102.324 189.248 111.696 194.715C120.106 198.332 131.406 212.359 134.122 209.394C136.839 206.43 133.442 196.68 126.536 187.619C119.631 178.557 106.831 171.612 104.115 174.576Z" fill="#49E1E6"/>
<path id="Ellipse 21" d="M90.3709 201.398C91.4692 197.17 97.4947 190.815 107.371 197.882C114.448 202.947 130.011 215.895 128.913 220.124C127.814 224.352 119.096 224.639 109.44 220.764C99.7831 216.888 89.2726 205.627 90.3709 201.398Z" fill="#49E1E6"/>
<path id="Ellipse 22" d="M78.2684 213.822C79.7104 209.754 90.2347 209.01 99.5097 217.189C106.156 223.05 116.629 232.883 115.187 236.951C113.745 241.019 105.964 235.801 96.6472 230.816C87.3305 225.832 76.8264 217.89 78.2684 213.822Z" fill="#49E1E6"/>
</g>
<g id="Vat">
<rect id="Rectangle 8" y="389.004" width="232.527" height="75.1024" fill="#0E4042"/>
<rect id="Rectangle 13" x="30.2699" y="105.284" width="167.86" height="13.9078" fill="#0E4042"/>
<rect id="Rectangle 9" x="20.6385" y="365.361" width="188.499" height="9.73549" fill="#56B2DB"/>
<rect id="Rectangle 12" x="16.5108" y="119.192" width="196.754" height="9.73549" fill="#56B2DB"/>
<path id="Polygon 1" d="M14.447 375.096H218.081L232.527 389.004H0L14.447 375.096Z" fill="#49E1E6"/>
<rect id="Rectangle 10" x="20.6385" y="128.927" width="5.50361" height="236.433" fill="white"/>
<rect id="Rectangle 14" x="59.1638" y="128.927" width="22.0144" height="236.433" fill="white" fill-opacity="0.6"/>
<path id="Rectangle 11" d="M203.634 128.927H209.137V365.361H203.634V128.927Z" fill="white"/>
</g>
</g>
</svg>
