<svg width="230" height="266" viewBox="0 0 230 266" fill="none" xmlns="http://www.w3.org/2000/svg">
<path fill-rule="evenodd" clip-rule="evenodd" d="M198.489 217.11C191.724 206.652 181.75 199.051 170.294 195.621L143.687 187.656V167.219C154.935 158.19 162.322 143.981 162.776 127.909C164.348 128.649 166.083 129.069 167.912 129.069C174.954 129.069 180.662 122.969 180.662 115.444C180.662 107.919 174.954 101.819 167.912 101.819C166.098 101.819 164.375 102.23 162.812 102.96V99.0937C162.812 70.875 141.406 48 115 48H114.999C88.5935 48 67.1875 70.875 67.1875 99.0937V102.96C65.6243 102.23 63.9018 101.819 62.0875 101.819C55.0457 101.819 49.3375 107.919 49.3375 115.444C49.3375 122.969 55.0457 129.069 62.0875 129.069C63.9165 129.069 65.6518 128.65 67.2245 127.909C67.6777 143.981 75.0644 158.19 86.3119 167.219V187.656L59.7052 195.621C48.2493 199.051 38.2756 206.652 31.5104 217.11L13 245.726V266H217V245.726L198.489 217.11Z" fill="#DA7F4B"/>
<path fill-rule="evenodd" clip-rule="evenodd" d="M114.999 177.437C109.104 177.437 103.461 176.29 98.2459 174.205C105.663 179.268 114.47 182.206 123.924 182.206C130.975 182.206 137.662 180.562 143.687 177.635V167.219C135.696 173.634 125.764 177.437 114.999 177.437Z" fill="#BF6430" fill-opacity="0.79"/>
<path d="M68.8505 117.432C69.013 116.799 69.1004 116.132 69.1004 115.444C69.1004 111.306 65.9607 107.95 62.0879 107.95C61.1195 107.95 60.1971 108.16 59.3581 108.539" stroke="#00004D" stroke-width="2" stroke-linecap="round" stroke-linejoin="round"/>
<path d="M161.149 117.432C160.987 116.799 160.9 116.132 160.9 115.444C160.9 111.306 164.04 107.95 167.913 107.95C168.88 107.95 169.803 108.16 170.642 108.539" stroke="#00004D" stroke-width="2" stroke-linecap="round" stroke-linejoin="round"/>
<path fill-rule="evenodd" clip-rule="evenodd" d="M217 245.806L198.489 217.302C191.724 206.886 181.751 199.314 170.294 195.898L143.687 187.964C143.687 204.829 130.844 218.5 115 218.5V218.5C99.1562 218.5 86.3125 204.829 86.3125 187.964L59.7052 195.898C48.2493 199.314 38.2756 206.886 31.5104 217.302L13 245.806V266H217V245.806Z" fill="#FFCA00"/>
<path fill-rule="evenodd" clip-rule="evenodd" d="M99.8972 78.0543C93.2483 90.1819 83.1832 99.9018 71.121 105.754C68.989 103.418 66.0789 101.906 62.8378 101.674L64.5162 90.3305V90.3299C65.5857 83.0994 67.9872 76.343 71.4404 70.3499C74.6298 64.8171 78.7225 59.9472 83.4931 55.9558C85.358 54.3953 87.3238 52.9657 89.3836 51.6882C95.1668 48.1048 101.666 45.6944 108.598 44.7654C110.695 44.4844 112.831 44.333 115 44.333C124.337 44.333 133.083 47.0196 140.616 51.6882C147.946 56.2314 154.124 62.6536 158.559 70.3499C162.013 76.343 164.414 83.0994 165.484 90.3305L167.16 101.66C163.772 101.905 160.753 103.564 158.598 106.083C135.895 104.205 115.409 93.8861 99.8972 78.0543ZM86.25 167.086C74.9883 158.044 67.5746 143.833 67.1204 127.746C65.5443 128.488 63.8052 128.907 61.9722 128.907C60.9002 128.907 59.8658 128.752 58.8711 128.486L51.1111 180.932H86.25V167.086ZM168.028 128.908C166.195 128.908 164.455 128.488 162.879 127.746C162.425 143.833 155.012 158.044 143.75 167.085V180.932H178.889L171.129 128.486C170.134 128.751 169.1 128.908 168.028 128.908Z" fill="#00004D"/>
<path fill-rule="evenodd" clip-rule="evenodd" d="M128 149.491C128 157.04 122.18 163.158 115 163.158C107.82 163.158 102 157.04 102 149.491H128Z" fill="white"/>
<path fill-rule="evenodd" clip-rule="evenodd" d="M141.24 119.5C141.24 122.482 138.948 124.9 136.12 124.9C133.293 124.9 131 122.482 131 119.5C131 116.518 133.293 114.1 136.12 114.1C138.948 114.1 141.24 116.518 141.24 119.5" fill="#00004D"/>
<path fill-rule="evenodd" clip-rule="evenodd" d="M99 119.5C99 122.482 96.7075 124.9 93.88 124.9C91.0525 124.9 88.76 122.482 88.76 119.5C88.76 116.518 91.0525 114.1 93.88 114.1C96.7075 114.1 99 116.518 99 119.5" fill="#00004D"/>
<path d="M111.75 114L120.85 135.333L109.15 138" stroke="#00004D" stroke-width="2" stroke-linecap="round" stroke-linejoin="round"/>
</svg>
