<svg width="229" height="261" viewBox="0 0 229 261" fill="none" xmlns="http://www.w3.org/2000/svg">
<path fill-rule="evenodd" clip-rule="evenodd" d="M197.58 213.007C190.848 202.741 180.923 195.279 169.523 191.913L143.046 184.094V164.032C154.239 155.168 161.59 141.22 162.041 125.442C163.606 126.169 165.332 126.581 167.153 126.581C174.16 126.581 179.841 120.593 179.841 113.206C179.841 105.819 174.16 99.8312 167.153 99.8312C165.347 99.8312 163.633 100.235 162.078 100.951V97.1562C162.078 69.4553 140.776 47 114.5 47H114.499C88.2229 47 66.9219 69.4553 66.9219 97.1562V100.951C65.3664 100.235 63.6523 99.8312 61.8469 99.8312C54.8396 99.8312 49.1594 105.819 49.1594 113.206C49.1594 120.593 54.8396 126.581 61.8469 126.581C63.6669 126.581 65.3937 126.17 66.9587 125.442C67.4097 141.22 74.7602 155.168 85.9525 164.032V184.094L59.4762 191.913C48.0765 195.279 38.1517 202.741 31.4197 213.007L13 241.098V261H216V241.098L197.58 213.007Z" fill="#DA7F4B"/>
<path fill-rule="evenodd" clip-rule="evenodd" d="M114.499 174.062C108.633 174.062 103.017 172.936 97.8281 170.889C105.208 175.859 113.973 178.744 123.381 178.744C130.397 178.744 137.051 177.13 143.046 174.256V164.032C135.094 170.329 125.211 174.062 114.499 174.062Z" fill="#BF6430" fill-opacity="0.79"/>
<path d="M68.5767 115.158C68.7385 114.537 68.8254 113.882 68.8254 113.207C68.8254 109.144 65.7011 105.85 61.8473 105.85C60.8836 105.85 59.9657 106.056 59.1309 106.428" stroke="#00004D" stroke-width="2" stroke-linecap="round" stroke-linejoin="round"/>
<path d="M160.423 115.158C160.261 114.537 160.175 113.882 160.175 113.207C160.175 109.144 163.299 105.85 167.153 105.85C168.116 105.85 169.034 106.056 169.87 106.428" stroke="#00004D" stroke-width="2" stroke-linecap="round" stroke-linejoin="round"/>
<path fill-rule="evenodd" clip-rule="evenodd" d="M216 241.018L197.58 212.815C190.848 202.508 180.923 195.016 169.523 191.636L143.047 183.786C143.047 200.473 130.266 214 114.5 214C98.7339 214 85.9531 200.473 85.9531 183.786L59.4762 191.636C48.0765 195.016 38.1517 202.508 31.4197 212.815L13 241.018V261H216V241.018Z" fill="#00004D"/>
<path fill-rule="evenodd" clip-rule="evenodd" d="M127.25 146.333C127.25 153.697 121.542 159.667 114.5 159.667C107.458 159.667 101.75 153.697 101.75 146.333H127.25Z" fill="white"/>
<path fill-rule="evenodd" clip-rule="evenodd" d="M140.33 117.5C140.33 120.482 138.074 122.9 135.29 122.9C132.507 122.9 130.25 120.482 130.25 117.5C130.25 114.518 132.507 112.1 135.29 112.1C138.074 112.1 140.33 114.518 140.33 117.5Z" fill="#00004D"/>
<path fill-rule="evenodd" clip-rule="evenodd" d="M98.75 117.5C98.75 120.482 96.4934 122.9 93.71 122.9C90.9267 122.9 88.67 120.482 88.67 117.5C88.67 114.518 90.9267 112.1 93.71 112.1C96.4934 112.1 98.75 114.518 98.75 117.5Z" fill="#00004D"/>
<path d="M111.375 112L120.125 133.333L108.875 136" stroke="#00004D" stroke-width="2" stroke-linecap="round" stroke-linejoin="round"/>
<path fill-rule="evenodd" clip-rule="evenodd" d="M70.8119 103.767C69.6713 102.535 68.3101 101.535 66.7917 100.837C65.2325 100.119 63.5138 99.7151 61.7028 99.7151C61.2734 99.7151 60.8491 99.7392 60.4305 99.7834V97.0382C60.4305 65.6218 84.6384 40.1536 114.5 40.1536C144.362 40.1536 168.569 65.6218 168.569 97.0382V99.7834C168.151 99.7392 167.727 99.7151 167.297 99.7151C165.486 99.7151 163.767 100.119 162.208 100.837C160.561 101.594 159.104 102.713 157.909 104.09C135.304 102.245 114.908 92.122 99.4623 76.5872C92.8423 88.4868 82.821 98.024 70.8119 103.767ZM162.171 125.345C161.719 141.135 154.348 155.093 143.125 163.962V184.038L168.57 191.538V126.417C168.15 126.461 167.726 126.484 167.297 126.484C165.472 126.484 163.74 126.073 162.171 125.345ZM85.875 163.962C74.6514 155.093 67.2815 141.135 66.8285 125.345C65.2593 126.073 63.5278 126.484 61.7028 126.484C61.2734 126.484 60.8491 126.461 60.4305 126.417V191.538L85.875 184.038V163.962Z" fill="#00004D"/>
</svg>
